<mxfile host="app.diagrams.net" modified="2022-02-17T03:38:44.446Z" agent="5.0 (Windows NT 10.0; Win64; x64) AppleWebKit/537.36 (KHTML, like Gecko) Chrome/98.0.4758.82 Safari/537.36" etag="rqUWZ4DiTsgDOUXAUSUZ" version="16.5.6" type="github">
  <diagram id="iHON5WT4dPEAm0Z7nhtU" name="Page-1">
    <mxGraphModel dx="1038" dy="539" grid="1" gridSize="10" guides="1" tooltips="1" connect="1" arrows="1" fold="1" page="1" pageScale="1" pageWidth="850" pageHeight="1100" math="0" shadow="0">
      <root>
        <mxCell id="0" />
        <mxCell id="1" parent="0" />
        <mxCell id="KzEzhrgIC2hYX9I4tOmi-1" value="Commodity" style="whiteSpace=wrap;html=1;align=center;" vertex="1" parent="1">
          <mxGeometry x="180" y="160" width="100" height="40" as="geometry" />
        </mxCell>
        <mxCell id="KzEzhrgIC2hYX9I4tOmi-2" value="fetched from" style="shape=rhombus;perimeter=rhombusPerimeter;whiteSpace=wrap;html=1;align=center;" vertex="1" parent="1">
          <mxGeometry x="380" y="160" width="120" height="40" as="geometry" />
        </mxCell>
        <mxCell id="KzEzhrgIC2hYX9I4tOmi-3" value="Warehouse" style="whiteSpace=wrap;html=1;align=center;" vertex="1" parent="1">
          <mxGeometry x="600" y="160" width="100" height="40" as="geometry" />
        </mxCell>
        <mxCell id="KzEzhrgIC2hYX9I4tOmi-4" value="shipped by" style="shape=rhombus;perimeter=rhombusPerimeter;whiteSpace=wrap;html=1;align=center;" vertex="1" parent="1">
          <mxGeometry x="170" y="280" width="120" height="40" as="geometry" />
        </mxCell>
        <mxCell id="KzEzhrgIC2hYX9I4tOmi-5" value="Vechicle" style="whiteSpace=wrap;html=1;align=center;" vertex="1" parent="1">
          <mxGeometry x="180" y="400" width="100" height="40" as="geometry" />
        </mxCell>
        <mxCell id="KzEzhrgIC2hYX9I4tOmi-6" value="Unique_id" style="ellipse;whiteSpace=wrap;html=1;align=center;fontStyle=4;rotation=-30;" vertex="1" parent="1">
          <mxGeometry x="81.34" y="65" width="80" height="40" as="geometry" />
        </mxCell>
        <mxCell id="KzEzhrgIC2hYX9I4tOmi-10" value="Cus_name" style="ellipse;whiteSpace=wrap;html=1;align=center;" vertex="1" parent="1">
          <mxGeometry x="200" y="50" width="80" height="40" as="geometry" />
        </mxCell>
        <mxCell id="KzEzhrgIC2hYX9I4tOmi-11" value="" style="endArrow=none;html=1;rounded=0;" edge="1" parent="1">
          <mxGeometry relative="1" as="geometry">
            <mxPoint x="280" y="180" as="sourcePoint" />
            <mxPoint x="380" y="180" as="targetPoint" />
          </mxGeometry>
        </mxCell>
        <mxCell id="KzEzhrgIC2hYX9I4tOmi-13" value="" style="endArrow=none;html=1;rounded=0;" edge="1" parent="1">
          <mxGeometry relative="1" as="geometry">
            <mxPoint x="500" y="179.5" as="sourcePoint" />
            <mxPoint x="600" y="180" as="targetPoint" />
          </mxGeometry>
        </mxCell>
        <mxCell id="KzEzhrgIC2hYX9I4tOmi-18" value="" style="endArrow=none;html=1;rounded=0;entryX=0.495;entryY=1;entryDx=0;entryDy=0;entryPerimeter=0;" edge="1" parent="1" target="KzEzhrgIC2hYX9I4tOmi-1">
          <mxGeometry relative="1" as="geometry">
            <mxPoint x="229.5" y="280" as="sourcePoint" />
            <mxPoint x="229.5" y="210" as="targetPoint" />
            <Array as="points">
              <mxPoint x="229.5" y="250" />
            </Array>
          </mxGeometry>
        </mxCell>
        <mxCell id="KzEzhrgIC2hYX9I4tOmi-19" value="" style="endArrow=none;html=1;rounded=0;" edge="1" parent="1">
          <mxGeometry relative="1" as="geometry">
            <mxPoint x="229.5" y="320" as="sourcePoint" />
            <mxPoint x="229.5" y="400" as="targetPoint" />
          </mxGeometry>
        </mxCell>
        <mxCell id="KzEzhrgIC2hYX9I4tOmi-20" value="" style="endArrow=none;html=1;rounded=0;entryX=0;entryY=0.25;entryDx=0;entryDy=0;" edge="1" parent="1" target="KzEzhrgIC2hYX9I4tOmi-1">
          <mxGeometry relative="1" as="geometry">
            <mxPoint x="130" y="105" as="sourcePoint" />
            <mxPoint x="180" y="155" as="targetPoint" />
          </mxGeometry>
        </mxCell>
        <mxCell id="KzEzhrgIC2hYX9I4tOmi-21" value="" style="endArrow=none;html=1;rounded=0;" edge="1" parent="1">
          <mxGeometry relative="1" as="geometry">
            <mxPoint x="239.5" y="90" as="sourcePoint" />
            <mxPoint x="239.5" y="160" as="targetPoint" />
          </mxGeometry>
        </mxCell>
        <mxCell id="KzEzhrgIC2hYX9I4tOmi-22" value="Contact_num" style="ellipse;shape=doubleEllipse;margin=3;whiteSpace=wrap;html=1;align=center;direction=west;rotation=15;" vertex="1" parent="1">
          <mxGeometry x="750" y="40" width="80" height="40" as="geometry" />
        </mxCell>
        <mxCell id="KzEzhrgIC2hYX9I4tOmi-23" value="" style="endArrow=none;html=1;rounded=0;entryX=0.5;entryY=0;entryDx=0;entryDy=0;exitX=1;exitY=0;exitDx=0;exitDy=0;" edge="1" parent="1" source="KzEzhrgIC2hYX9I4tOmi-3" target="KzEzhrgIC2hYX9I4tOmi-22">
          <mxGeometry relative="1" as="geometry">
            <mxPoint x="269" y="156" as="sourcePoint" />
            <mxPoint x="360" y="100" as="targetPoint" />
          </mxGeometry>
        </mxCell>
        <mxCell id="KzEzhrgIC2hYX9I4tOmi-25" value="Destination" style="ellipse;whiteSpace=wrap;html=1;align=center;rotation=30;" vertex="1" parent="1">
          <mxGeometry x="301.38" y="47.33" width="79.33" height="40" as="geometry" />
        </mxCell>
        <mxCell id="KzEzhrgIC2hYX9I4tOmi-26" value="" style="endArrow=none;html=1;rounded=0;exitX=1;exitY=0;exitDx=0;exitDy=0;" edge="1" parent="1" source="KzEzhrgIC2hYX9I4tOmi-1">
          <mxGeometry relative="1" as="geometry">
            <mxPoint x="210" y="127.33000000000001" as="sourcePoint" />
            <mxPoint x="330" y="87.33000000000001" as="targetPoint" />
          </mxGeometry>
        </mxCell>
        <mxCell id="KzEzhrgIC2hYX9I4tOmi-27" value="Height" style="ellipse;whiteSpace=wrap;html=1;align=center;rotation=-65;" vertex="1" parent="1">
          <mxGeometry x="25" y="131.34" width="80" height="40" as="geometry" />
        </mxCell>
        <mxCell id="KzEzhrgIC2hYX9I4tOmi-28" value="" style="endArrow=none;html=1;rounded=0;exitX=0.408;exitY=1.033;exitDx=0;exitDy=0;exitPerimeter=0;" edge="1" parent="1" source="KzEzhrgIC2hYX9I4tOmi-27">
          <mxGeometry relative="1" as="geometry">
            <mxPoint x="70" y="179.5" as="sourcePoint" />
            <mxPoint x="180" y="179.5" as="targetPoint" />
          </mxGeometry>
        </mxCell>
        <mxCell id="KzEzhrgIC2hYX9I4tOmi-29" value="Weight" style="ellipse;whiteSpace=wrap;html=1;align=center;rotation=-120;" vertex="1" parent="1">
          <mxGeometry x="45" y="202.68" width="60" height="40" as="geometry" />
        </mxCell>
        <mxCell id="KzEzhrgIC2hYX9I4tOmi-30" value="" style="endArrow=none;html=1;rounded=0;entryX=0;entryY=0.75;entryDx=0;entryDy=0;exitX=0.5;exitY=1;exitDx=0;exitDy=0;" edge="1" parent="1" source="KzEzhrgIC2hYX9I4tOmi-29" target="KzEzhrgIC2hYX9I4tOmi-1">
          <mxGeometry relative="1" as="geometry">
            <mxPoint x="100" y="220" as="sourcePoint" />
            <mxPoint x="190" y="202.68" as="targetPoint" />
          </mxGeometry>
        </mxCell>
        <mxCell id="KzEzhrgIC2hYX9I4tOmi-32" value="Delivery_date" style="ellipse;whiteSpace=wrap;html=1;align=center;rotation=60;" vertex="1" parent="1">
          <mxGeometry x="381.25" y="76.5" width="75" height="40" as="geometry" />
        </mxCell>
        <mxCell id="KzEzhrgIC2hYX9I4tOmi-33" value="" style="endArrow=none;html=1;rounded=0;exitX=1;exitY=0.25;exitDx=0;exitDy=0;" edge="1" parent="1" source="KzEzhrgIC2hYX9I4tOmi-1">
          <mxGeometry relative="1" as="geometry">
            <mxPoint x="281.05" y="156.5" as="sourcePoint" />
            <mxPoint x="401" y="110" as="targetPoint" />
          </mxGeometry>
        </mxCell>
        <mxCell id="KzEzhrgIC2hYX9I4tOmi-34" value="Unique_id" style="ellipse;whiteSpace=wrap;html=1;align=center;fontStyle=4;rotation=15;" vertex="1" parent="1">
          <mxGeometry x="650.0010161513776" y="25.000508075688764" width="80" height="40" as="geometry" />
        </mxCell>
        <mxCell id="KzEzhrgIC2hYX9I4tOmi-37" value="" style="endArrow=none;html=1;rounded=0;entryX=0.5;entryY=1;entryDx=0;entryDy=0;exitX=0.572;exitY=-0.005;exitDx=0;exitDy=0;exitPerimeter=0;" edge="1" parent="1" source="KzEzhrgIC2hYX9I4tOmi-3" target="KzEzhrgIC2hYX9I4tOmi-34">
          <mxGeometry relative="1" as="geometry">
            <mxPoint x="660" y="150" as="sourcePoint" />
            <mxPoint x="700" y="105" as="targetPoint" />
          </mxGeometry>
        </mxCell>
        <mxCell id="KzEzhrgIC2hYX9I4tOmi-38" value="Address" style="ellipse;whiteSpace=wrap;html=1;align=center;rotation=-30;" vertex="1" parent="1">
          <mxGeometry x="539.33" y="37.5" width="90" height="40" as="geometry" />
        </mxCell>
        <mxCell id="KzEzhrgIC2hYX9I4tOmi-39" value="" style="endArrow=none;html=1;rounded=0;entryX=0.34;entryY=-0.065;entryDx=0;entryDy=0;entryPerimeter=0;exitX=0.5;exitY=1;exitDx=0;exitDy=0;" edge="1" parent="1" source="KzEzhrgIC2hYX9I4tOmi-38" target="KzEzhrgIC2hYX9I4tOmi-3">
          <mxGeometry relative="1" as="geometry">
            <mxPoint x="510" y="116.5" as="sourcePoint" />
            <mxPoint x="670" y="116.5" as="targetPoint" />
          </mxGeometry>
        </mxCell>
        <mxCell id="KzEzhrgIC2hYX9I4tOmi-40" value="Charges" style="ellipse;whiteSpace=wrap;html=1;align=center;rotation=60;" vertex="1" parent="1">
          <mxGeometry x="332.93" y="372.93" width="80" height="40" as="geometry" />
        </mxCell>
        <mxCell id="KzEzhrgIC2hYX9I4tOmi-41" value="Vehicle_no" style="ellipse;whiteSpace=wrap;html=1;align=center;rotation=-225;" vertex="1" parent="1">
          <mxGeometry x="296.05" y="460" width="90" height="40" as="geometry" />
        </mxCell>
        <mxCell id="KzEzhrgIC2hYX9I4tOmi-42" value="" style="endArrow=none;html=1;rounded=0;exitX=1;exitY=0.5;exitDx=0;exitDy=0;entryX=0.333;entryY=1.062;entryDx=0;entryDy=0;entryPerimeter=0;" edge="1" parent="1" source="KzEzhrgIC2hYX9I4tOmi-5" target="KzEzhrgIC2hYX9I4tOmi-40">
          <mxGeometry relative="1" as="geometry">
            <mxPoint x="250" y="400" as="sourcePoint" />
            <mxPoint x="350" y="400.5" as="targetPoint" />
            <Array as="points">
              <mxPoint x="330" y="400" />
            </Array>
          </mxGeometry>
        </mxCell>
        <mxCell id="KzEzhrgIC2hYX9I4tOmi-43" value="" style="endArrow=none;html=1;rounded=0;exitX=1;exitY=1;exitDx=0;exitDy=0;" edge="1" parent="1" source="KzEzhrgIC2hYX9I4tOmi-5">
          <mxGeometry relative="1" as="geometry">
            <mxPoint x="222.93" y="460" as="sourcePoint" />
            <mxPoint x="332.93" y="460" as="targetPoint" />
          </mxGeometry>
        </mxCell>
        <mxCell id="KzEzhrgIC2hYX9I4tOmi-44" value="Type" style="ellipse;whiteSpace=wrap;html=1;align=center;rotation=-90;" vertex="1" parent="1">
          <mxGeometry x="34.33" y="412.93" width="81.34" height="40" as="geometry" />
        </mxCell>
        <mxCell id="KzEzhrgIC2hYX9I4tOmi-45" value="" style="endArrow=none;html=1;rounded=0;entryX=0;entryY=0.5;entryDx=0;entryDy=0;" edge="1" parent="1" target="KzEzhrgIC2hYX9I4tOmi-5">
          <mxGeometry relative="1" as="geometry">
            <mxPoint x="90" y="433" as="sourcePoint" />
            <mxPoint x="241.33999999999997" y="430" as="targetPoint" />
          </mxGeometry>
        </mxCell>
        <mxCell id="KzEzhrgIC2hYX9I4tOmi-46" value="Route" style="ellipse;whiteSpace=wrap;html=1;align=center;rotation=-150;" vertex="1" parent="1">
          <mxGeometry x="120" y="490" width="80" height="40" as="geometry" />
        </mxCell>
        <mxCell id="KzEzhrgIC2hYX9I4tOmi-47" value="" style="endArrow=none;html=1;rounded=0;exitX=0.25;exitY=1;exitDx=0;exitDy=0;entryX=0.5;entryY=1;entryDx=0;entryDy=0;" edge="1" parent="1" source="KzEzhrgIC2hYX9I4tOmi-5" target="KzEzhrgIC2hYX9I4tOmi-46">
          <mxGeometry relative="1" as="geometry">
            <mxPoint x="140" y="470" as="sourcePoint" />
            <mxPoint x="230" y="470" as="targetPoint" />
          </mxGeometry>
        </mxCell>
      </root>
    </mxGraphModel>
  </diagram>
</mxfile>
